<svg xmlns="http://www.w3.org/2000/svg" width="3001" height="2251" viewBox="0 0 3001 2251" version="1.1"><path d="M 515 774 L 515 1051 562.498 1051 L 609.996 1051 610.248 813.274 L 610.500 575.547 667.917 809.024 C 699.496 937.436, 725.785 1044.412, 726.336 1046.750 L 727.337 1051 793.930 1051 L 860.522 1051 918.011 814.297 L 975.500 577.595 975.752 814.297 L 976.004 1051 1023.502 1051 L 1071 1051 1071 774 L 1071 497 986.672 497 L 902.343 497 901.251 501.750 C 900.650 504.363, 876.015 612.920, 846.508 742.988 C 817 873.057, 792.777 979.556, 792.679 979.654 C 792.580 979.752, 768.241 871.757, 738.591 739.666 C 708.942 607.575, 684.481 498.938, 684.234 498.250 C 683.881 497.263, 666.002 497, 599.393 497 L 515 497 515 774 M 1255.592 498.744 C 1255.291 499.710, 1223.304 623.575, 1184.509 774 C 1145.715 924.425, 1113.725 1048.287, 1113.420 1049.250 C 1112.897 1050.901, 1115.772 1051, 1164.335 1051 L 1215.805 1051 1223.298 1020.250 C 1227.419 1003.337, 1234.751 973.188, 1239.591 953.250 L 1248.391 917 1334.176 917 L 1419.962 917 1420.494 919.250 C 1420.786 920.487, 1427.995 950.488, 1436.513 985.917 C 1445.031 1021.346, 1452 1050.484, 1452 1050.667 C 1452 1050.850, 1475.205 1051, 1503.567 1051 C 1554.231 1051, 1555.124 1050.966, 1554.516 1049.051 C 1554.176 1047.979, 1522.254 923.441, 1483.579 772.301 L 1413.261 497.500 1334.700 497.244 C 1260.523 497.002, 1256.108 497.086, 1255.592 498.744 M 1592 773.948 L 1592 1051 1640.500 1051 L 1689 1051 1689 939.948 L 1689 828.896 1747.250 829.235 C 1803.737 829.564, 1805.742 829.641, 1813.500 831.786 C 1837.545 838.435, 1852.022 852.325, 1858.212 874.686 C 1860.302 882.234, 1860.398 884.884, 1861.030 952.500 C 1861.644 1018.190, 1861.810 1023.054, 1863.739 1031.500 C 1864.869 1036.450, 1866.641 1042.750, 1867.678 1045.500 L 1869.562 1050.500 1919.781 1050.759 C 1947.402 1050.902, 1970 1050.874, 1970 1050.697 C 1970 1050.520, 1969.094 1048.500, 1967.986 1046.207 C 1965.356 1040.765, 1962.321 1027.784, 1961.039 1016.500 C 1960.444 1011.260, 1960.011 979.512, 1960.002 940.500 C 1959.987 869.078, 1959.639 862.675, 1954.940 847.500 C 1946.911 821.570, 1927.100 802.183, 1899.376 793.123 C 1894.417 791.502, 1888.141 789.854, 1885.430 789.461 C 1882.718 789.067, 1880.130 788.531, 1879.678 788.269 C 1879.226 788.007, 1882.826 786.463, 1887.678 784.838 C 1904.463 779.215, 1919.843 769.100, 1934.042 754.348 C 1947.699 740.159, 1958.504 722.759, 1964.879 704.688 C 1977.015 670.286, 1976.186 618.296, 1962.940 583.078 C 1955.917 564.405, 1947.214 551.206, 1932.877 537.482 C 1910.930 516.475, 1882.304 504.564, 1840 498.839 C 1834.140 498.046, 1794.308 497.566, 1711.750 497.293 L 1592 496.896 1592 773.948 M 2031 774 L 2031 1051 2080 1051 L 2129 1051 2129 774 L 2129 497 2080 497 L 2031 497 2031 774 M 2196 773.997 L 2196 1051 2359 1051 L 2522 1051 2522 1011.500 L 2522 972 2409 972 L 2296 972 2296 892.500 L 2296 813 2388 813 L 2480 813 2480 773.500 L 2480 734 2388 734 L 2296 734 2296 655.500 L 2296 577 2409.011 577 L 2522.023 577 2521.761 537.250 L 2521.500 497.500 2358.750 497.247 L 2196 496.994 2196 773.997 M 1301.233 699.135 C 1282.937 774.576, 1268.127 836.461, 1268.324 836.657 C 1268.520 836.854, 1298.353 836.899, 1334.618 836.757 L 1400.555 836.500 1367.826 700.500 C 1349.825 625.700, 1334.962 563.931, 1334.798 563.235 C 1334.634 562.539, 1319.530 623.694, 1301.233 699.135 M 1689 663.061 L 1689 749.122 1744.750 748.773 L 1800.500 748.425 1809.463 745.655 C 1840.487 736.068, 1861.211 713.320, 1868.717 680.615 C 1871.322 669.264, 1871.033 644.006, 1868.165 632.500 C 1864.697 618.583, 1859.922 609.893, 1850.522 600.390 C 1843.901 593.696, 1840.841 591.468, 1833 587.630 C 1822.447 582.465, 1811.878 579.466, 1799.038 577.995 C 1794.342 577.457, 1767.662 577.013, 1739.750 577.008 L 1689 577 1689 663.061 M 1773.371 1114.985 C 1717.090 1119.068, 1672.388 1138.681, 1635.460 1175.494 C 1593.289 1217.535, 1568.279 1275.041, 1559.346 1350.500 C 1556.825 1371.804, 1556.825 1427.196, 1559.346 1448.500 C 1568.140 1522.786, 1593.669 1581.673, 1634.998 1623.002 C 1668.070 1656.075, 1705.707 1674.738, 1754.203 1682.116 C 1765.629 1683.854, 1773.119 1684.301, 1791.500 1684.340 C 1815.838 1684.391, 1826.758 1683.421, 1846.756 1679.431 C 1891.262 1670.552, 1933.344 1645.247, 1961.232 1610.596 C 1990.308 1574.468, 2006.729 1532.569, 2009.578 1487.241 L 2010.286 1475.981 1959.893 1476.241 L 1909.500 1476.500 1908.885 1487 C 1906.930 1520.400, 1894.159 1549.352, 1871.611 1571.500 C 1856.078 1586.757, 1839.398 1595.707, 1818 1600.264 C 1806.526 1602.708, 1783.429 1603.132, 1772 1601.109 C 1711.343 1590.373, 1672.802 1538.558, 1661.533 1452.594 C 1657.608 1422.654, 1657.624 1377.123, 1661.570 1346 C 1668.149 1294.102, 1685.847 1253.254, 1712.747 1227.878 C 1727.938 1213.547, 1747.532 1203.548, 1768.688 1199.331 C 1781.846 1196.708, 1806.231 1196.959, 1819.794 1199.857 C 1853.974 1207.159, 1880.279 1228.091, 1896.004 1260.500 C 1903.768 1276.500, 1907.882 1292.731, 1908.742 1310.750 L 1909.279 1322 1959.776 1322 L 2010.274 1322 2009.591 1312.250 C 2005.853 1258.923, 1982.627 1207.971, 1945.864 1172.453 C 1918.817 1146.322, 1886.155 1128.497, 1850.883 1120.617 C 1828.152 1115.539, 1796.967 1113.273, 1773.371 1114.985 M 515 1399 L 515 1676 562.498 1676 L 609.996 1676 610.248 1438.274 L 610.500 1200.547 667.917 1434.024 C 699.496 1562.436, 725.785 1669.412, 726.336 1671.750 L 727.337 1676 793.930 1676 L 860.522 1676 918.011 1439.297 L 975.500 1202.595 975.752 1439.297 L 976.004 1676 1023.502 1676 L 1071 1676 1071 1399 L 1071 1122 986.672 1122 L 902.343 1122 901.251 1126.750 C 900.650 1129.362, 876.015 1237.920, 846.508 1367.988 C 817 1498.057, 792.777 1604.556, 792.679 1604.654 C 792.580 1604.752, 768.241 1496.757, 738.591 1364.666 C 708.942 1232.575, 684.481 1123.938, 684.234 1123.250 C 683.881 1122.263, 666.002 1122, 599.393 1122 L 515 1122 515 1399 M 1255.592 1123.744 C 1255.291 1124.710, 1223.304 1248.575, 1184.509 1399 C 1145.715 1549.425, 1113.725 1673.287, 1113.420 1674.250 C 1112.897 1675.901, 1115.772 1676, 1164.335 1676 L 1215.805 1676 1223.298 1645.250 C 1227.419 1628.338, 1234.751 1598.188, 1239.591 1578.250 L 1248.391 1542 1334.176 1542 L 1419.962 1542 1420.494 1544.250 C 1420.786 1545.487, 1427.995 1575.488, 1436.513 1610.917 C 1445.031 1646.346, 1452 1675.484, 1452 1675.667 C 1452 1675.850, 1475.205 1676, 1503.567 1676 C 1554.231 1676, 1555.124 1675.966, 1554.516 1674.051 C 1554.176 1672.979, 1522.254 1548.441, 1483.579 1397.301 L 1413.261 1122.500 1334.700 1122.244 C 1260.523 1122.002, 1256.108 1122.086, 1255.592 1123.744 M 1301.233 1324.135 C 1282.937 1399.576, 1268.127 1461.461, 1268.324 1461.657 C 1268.520 1461.854, 1298.353 1461.899, 1334.618 1461.757 L 1400.555 1461.500 1367.826 1325.500 C 1349.825 1250.700, 1334.962 1188.931, 1334.798 1188.235 C 1334.634 1187.539, 1319.530 1248.694, 1301.233 1324.135 M 2338.400 1220.428 C 2336.694 1221.170, 2334.957 1222.615, 2334.539 1223.639 C 2334.121 1224.662, 2331.153 1255.092, 2327.942 1291.260 C 2324.732 1327.428, 2321.830 1357.466, 2321.494 1358.010 C 2320.229 1360.056, 2318.060 1358.704, 2304.547 1347.449 C 2296.919 1341.096, 2289.824 1335.441, 2288.780 1334.882 C 2285.983 1333.386, 2281.320 1334.778, 2278.922 1337.826 C 2275.260 1342.482, 2276.662 1345.533, 2289.434 1360.701 C 2295.795 1368.255, 2301 1375.027, 2301 1375.749 C 2301 1376.472, 2300.421 1377.285, 2299.712 1377.557 C 2299.004 1377.829, 2221.348 1380.915, 2127.143 1384.416 L 1955.862 1390.781 1953.431 1393.065 C 1948.630 1397.576, 1950.997 1406.422, 1957.279 1407.445 C 1959.050 1407.733, 2036.100 1410.702, 2128.500 1414.042 C 2220.900 1417.383, 2297.512 1420.323, 2298.750 1420.577 C 2299.988 1420.831, 2301 1421.735, 2301 1422.587 C 2301 1423.438, 2296.359 1429.617, 2290.687 1436.318 C 2285.015 1443.018, 2279.615 1449.613, 2278.687 1450.973 C 2276.224 1454.583, 2276.613 1457.767, 2279.923 1461.077 C 2285.176 1466.330, 2287.120 1465.553, 2303.883 1451.500 C 2312.083 1444.625, 2319.263 1439, 2319.838 1439 C 2320.412 1439, 2321.147 1439.428, 2321.470 1439.952 C 2321.793 1440.475, 2324.709 1470.955, 2327.949 1507.684 L 2333.840 1574.466 2336.476 1576.733 C 2339.862 1579.646, 2344.168 1579.620, 2347.602 1576.666 L 2350.315 1574.332 2356.117 1508.916 C 2359.308 1472.937, 2361.937 1442.698, 2361.959 1441.719 C 2362.059 1437.363, 2365.347 1439.120, 2380.076 1451.400 C 2392.745 1461.962, 2395.726 1464, 2398.506 1464 C 2400.981 1464, 2402.479 1463.220, 2404.411 1460.923 C 2407.196 1457.614, 2407.627 1455.041, 2405.930 1451.869 C 2405.342 1450.770, 2399.717 1443.749, 2393.430 1436.267 C 2382.674 1423.465, 2380.936 1420.764, 2382.750 1419.663 C 2383.162 1419.412, 2412.975 1416.661, 2449 1413.548 C 2485.025 1410.436, 2515.489 1407.485, 2516.697 1406.990 C 2522.394 1404.659, 2523.529 1395.703, 2518.541 1392.435 C 2516.737 1391.253, 2501.389 1389.597, 2453.838 1385.454 C 2382.012 1379.195, 2383.057 1379.312, 2382.341 1377.447 C 2382.015 1376.597, 2386.821 1370.043, 2394.399 1361.003 C 2407.975 1344.809, 2408.926 1342.718, 2404.988 1337.712 C 2402.653 1334.744, 2397.974 1333.409, 2395.168 1334.910 C 2394.096 1335.484, 2387.068 1341.139, 2379.549 1347.477 C 2366.566 1358.421, 2363.824 1360.142, 2362.578 1358.126 C 2362.280 1357.645, 2359.510 1328.057, 2356.422 1292.376 C 2353.333 1256.694, 2350.322 1226.207, 2349.731 1224.627 C 2349.071 1222.864, 2347.383 1221.222, 2345.360 1220.377 C 2341.489 1218.760, 2342.245 1218.754, 2338.400 1220.428" stroke="none" fill="#da5a7e" fill-rule="evenodd"/></svg>