<svg class="icon" xmlns="http://www.w3.org/2000/svg" viewBox="0 0 48 48">
    <g data-name="23-programming">
        <path class="st2" d="M23 37H5a5.006 5.006 0 0 1-5-5 1 1 0 0 1 1-1h22v2H2.171A3.006 3.006 0 0 0 5 35h18z" />
        <path class="st2" d="M4 32H2V3a3 3 0 0 1 3-3h38a3 3 0 0 1 3 3v13h-2V3a1 1 0 0 0-1-1H5a1 1 0 0 0-1 1z" />
        <path class="st2"
            d="M45.242 48H24.758A2.761 2.761 0 0 1 22 45.242V22.728a2.774 2.774 0 0 1 .808-1.95l4.97-4.97a2.774 2.774 0 0 1 1.95-.808h15.514A2.761 2.761 0 0 1 48 17.758v27.484A2.761 2.761 0 0 1 45.242 48zM29.728 17a.763.763 0 0 0-.536.222l-4.97 4.97a.763.763 0 0 0-.222.536v22.514a.759.759 0 0 0 .758.758h20.484a.759.759 0 0 0 .758-.758V17.758a.759.759 0 0 0-.758-.758z" />
        <path class="st2" d="M30 24h-7v-2h6v-6h2v7a1 1 0 0 1-1 1zM18 32h5v2h-5z" />
        <path class="st2" d="M9 32H7V6a1 1 0 0 1 1-1h32a1 1 0 0 1 1 1v10h-2V7H9z" />
        <path class="st2"
            d="M8 11h32v2H8zM11 8h2v2h-2zM15 8h2v2h-2zM19 8h2v2h-2zM30.293 37.707l-3-3a1 1 0 0 1 0-1.414l3-3 1.414 1.414L29.414 34l2.293 2.293zM39.707 37.707l-1.414-1.414L40.586 34l-2.293-2.293 1.414-1.414 3 3a1 1 0 0 1 0 1.414zM32.168 36.446l4-6 1.664 1.11-4 6zM27 40h4v2h-4zM33 40h4v2h-4zM39 40h4v2h-4zM27 26h4v2h-4zM33 26h4v2h-4zM39 26h4v2h-4zM33 21h4v2h-4zM39 21h4v2h-4zM13 20h-2v-4a1 1 0 0 1 1-1h4v2h-3zM11 22h2v2h-2z" />
    </g>
</svg>