<svg class="icon" xmlns="http://www.w3.org/2000/svg" viewBox="0 0 48 48">
    <g data-name="16-responsive">
        <path class="st2"
            d="M23 40H3a3 3 0 0 1-3-3V3a3 3 0 0 1 3-3h42a3 3 0 0 1 3 3v12h-2V3a1 1 0 0 0-1-1H3a1 1 0 0 0-1 1v34a1 1 0 0 0 1 1h20z" />
        <path class="st2" d="M15 39h2v4h-2z" />
        <path class="st2" d="M13 47h-2v-2a3 3 0 0 1 3-3h9v2h-9a1 1 0 0 0-1 1z" />
        <path class="st2" d="M9 46h16v2H9zM44 9h-2V6h-3V4h4a1 1 0 0 1 1 1zM6 9H4V5a1 1 0 0 1 1-1h4v2H6z" />
        <path class="st2"
            d="M45 48H25a3 3 0 0 1-3-3V15a3 3 0 0 1 3-3h20a3 3 0 0 1 3 3v30a3 3 0 0 1-3 3zM25 14a1 1 0 0 0-1 1v30a1 1 0 0 0 1 1h20a1 1 0 0 0 1-1V15a1 1 0 0 0-1-1z" />
        <path class="st2"
            d="M23 18h24v2H23zM23 40h24v2H23zM32 15h6v2h-6zM32 43h6v2h-6zM26 36h2v2h-2zM26 32h2v2h-2zM30 36h2v2h-2zM1 32h22v2H1zM9 30H5a1 1 0 0 1-1-1v-4h2v3h3zM11 28h2v2h-2z" />
    </g>
</svg>