<svg class="icon" xmlns="http://www.w3.org/2000/svg" viewBox="0 0 48 48">
    <g data-name="27-web design">
        <path class="st2"
            d="M45 40H3a3 3 0 0 1-3-3V11a3 3 0 0 1 3-3h3v2H3a1 1 0 0 0-1 1v26a1 1 0 0 0 1 1h42a1 1 0 0 0 1-1V11a1 1 0 0 0-1-1h-3V8h3a3 3 0 0 1 3 3v26a3 3 0 0 1-3 3z" />
        <path class="st2" d="M15 39h2v4h-2z" />
        <path class="st2" d="M13 47h-2v-2a3 3 0 0 1 3-3h10v2H14a1 1 0 0 0-1 1zM31 39h2v4h-2z" />
        <path class="st2" d="M37 47h-2v-2a1 1 0 0 0-1-1h-5v-2h5a3 3 0 0 1 3 3z" />
        <path class="st2"
            d="M9 46h30v2H9zM40 36H8a3 3 0 0 1-3-3V9a3 3 0 0 1 3-3h10v2H8a1 1 0 0 0-1 1v24a1 1 0 0 0 1 1h32a1 1 0 0 0 1-1V9a1 1 0 0 0-1-1H30V6h10a3 3 0 0 1 3 3v24a3 3 0 0 1-3 3z" />
        <path class="st2"
            d="M1 30h5v2H1zM42 30h5v2h-5zM28.814 26.581l-1.628-1.162 4.619-6.467L24 5.943l-7.8 13.009 4.619 6.467-1.628 1.162-5-7a1 1 0 0 1-.043-1.1l9-15a1.04 1.04 0 0 1 1.714 0l9 15a1 1 0 0 1-.043 1.1z" />
        <path class="st2"
            d="M31 31H17a1 1 0 0 1-1-1v-4a1 1 0 0 1 1-1h14a1 1 0 0 1 1 1v4a1 1 0 0 1-1 1zm-13-2h12v-2H18z" />
        <path class="st2" d="M18 30h2v5h-2zM28 30h2v5h-2zM24 23a2 2 0 1 1 2-2 2 2 0 0 1-2 2zm0-2z" />
        <path class="st2" d="M23 4h2v16h-2z" />
        <path class="st2" d="M38 14h-2a12 12 0 0 0-24 0h-2a14 14 0 0 1 28 0z" />
        <path class="st2"
            d="M11 19a3 3 0 1 1 3-3 3 3 0 0 1-3 3zm0-4a1 1 0 1 0 1 1 1 1 0 0 0-1-1zM37 19a3 3 0 1 1 3-3 3 3 0 0 1-3 3zm0-4a1 1 0 1 0 1 1 1 1 0 0 0-1-1zM9 30h2v2H9zM9 26h2v2H9zM13 30h2v2h-2zM33 30h2v2h-2zM37 30h2v2h-2zM37 26h2v2h-2z" />
    </g>
</svg>