<svg class="icon" xmlns="http://www.w3.org/2000/svg" viewBox="0 0 48 48">
    <g data-name="07-web development">
        <path class="st2"
            d="M45 40H3a3 3 0 0 1-3-3V11a3 3 0 0 1 3-3h3v2H3a1 1 0 0 0-1 1v26a1 1 0 0 0 1 1h42a1 1 0 0 0 1-1V11a1 1 0 0 0-1-1h-3V8h3a3 3 0 0 1 3 3v26a3 3 0 0 1-3 3z" />
        <path class="st2" d="M15 39h2v4h-2z" />
        <path class="st2" d="M13 47h-2v-2a3 3 0 0 1 3-3h10v2H14a1 1 0 0 0-1 1zM31 39h2v4h-2z" />
        <path class="st2" d="M37 47h-2v-2a1 1 0 0 0-1-1h-5v-2h5a3 3 0 0 1 3 3z" />
        <path class="st2"
            d="M9 46h30v2H9zM40 36H8a3 3 0 0 1-3-3V3a3 3 0 0 1 3-3h32a3 3 0 0 1 3 3v30a3 3 0 0 1-3 3zM8 2a1 1 0 0 0-1 1v30a1 1 0 0 0 1 1h32a1 1 0 0 0 1-1V3a1 1 0 0 0-1-1z" />
        <path class="st2"
            d="M6 6h36v2H6zM9 3h2v2H9zM13 3h2v2h-2zM17 3h2v2h-2zM1 30h5v2H1zM42 30h5v2h-5zM32 36h-4a1 1 0 0 1-1-1V20.191a5.992 5.992 0 0 1 .6-10.685 1 1 0 0 1 1.4.916V14h2v-3.578a1 1 0 0 1 1.4-.916 5.992 5.992 0 0 1 .6 10.685V35a1 1 0 0 1-1 1zm-3-2h2V19.578a1 1 0 0 1 .6-.916 3.991 3.991 0 0 0 1.4-6.3V15a1 1 0 0 1-1 1h-4a1 1 0 0 1-1-1v-2.641a3.991 3.991 0 0 0 1.4 6.3 1 1 0 0 1 .6.916z" />
        <rect class="st2" x="15" y="10" width="4" height="6" rx="1" ry="1" />
        <path class="st2"
            d="M19 36h-4a1 1 0 0 1-1-1V25a1 1 0 0 1 1-1h4a1 1 0 0 1 1 1v10a1 1 0 0 1-1 1zm-3-2h2v-8h-2z" />
        <path class="st2" d="M13 24h8v2h-8z" />
        <path class="st2" d="M16 15h2v10h-2zM15 27h4v2h-4zM9 30h2v2H9zM37 30h2v2h-2zM37 10h2v2h-2zM9 10h2v2H9z" />
    </g>
</svg>